<svg width="168" height="79" viewBox="0 0 168 79" fill="none" xmlns="http://www.w3.org/2000/svg">
<path d="M59.9016 4.79921L64.0016 -0.00078392H78.5016L77.3016 1.89922C75.9016 4.09921 74.6016 5.93255 73.4016 7.39922C72.2016 8.86588 69.9016 11.3326 66.5016 14.7992C60.5682 20.9326 55.3016 25.3992 50.7016 28.1992C44.7016 32.0659 37.6016 35.5992 29.4016 38.7992C28.9349 38.9992 28.7016 39.1326 28.7016 39.1992C28.7016 39.4659 29.7349 39.9659 31.8016 40.6992C35.0682 41.9659 39.4016 44.0325 44.8016 46.8992C55.8016 52.8992 65.0349 60.5992 72.5016 69.9992C76.4349 74.9992 78.4016 77.8659 78.4016 78.5992C78.4016 78.7992 76.0016 78.8992 71.2016 78.8992H64.0016L62.0016 76.0992C60.8016 74.5659 58.6349 72.3326 55.5016 69.3992C52.3682 66.3992 50.1349 64.4992 48.8016 63.6992C48.4682 63.4326 47.8682 62.9992 47.0016 62.3992C46.1349 61.7992 45.6016 61.4326 45.4016 61.2992C42.8016 59.4326 39.0349 57.3659 34.1016 55.0992C29.2349 52.8326 24.6682 51.0659 20.4016 49.7992C18.6016 49.2659 15.6682 48.5659 11.6016 47.6992C7.60156 46.8326 4.70156 46.2992 2.90156 46.0992L0.00156264 45.7992V39.3992C0.00156264 36.3326 0.0682293 34.4992 0.201563 33.8992C0.334896 33.2992 0.668229 32.9326 1.20156 32.7992C1.40156 32.7326 1.76823 32.6659 2.30156 32.5992C2.90156 32.4659 3.70156 32.3325 4.70156 32.1992C5.70156 31.9992 6.5349 31.8325 7.20156 31.6992C15.4016 30.2992 21.5349 28.7326 25.6016 26.9992C26.6682 26.5326 27.3349 26.2992 27.6016 26.2992C28.4016 26.2992 31.4682 24.8992 36.8016 22.0992C42.1349 19.2992 45.7016 17.1992 47.5016 15.7992C47.8349 15.4659 49.4349 14.2659 52.3016 12.1992C54.3016 10.7326 56.8349 8.26588 59.9016 4.79921ZM121.362 0.999215C122.362 0.799214 124.062 0.699213 126.462 0.699213C126.862 0.699213 127.462 0.732548 128.262 0.799218C129.128 0.799218 129.762 0.799218 130.162 0.799218C134.895 0.999215 139.028 1.83255 142.562 3.29922C146.095 4.69922 150.028 7.13255 154.362 10.5992C159.428 14.6659 163.262 20.5992 165.862 28.3992C166.328 29.9326 166.595 31.9326 166.662 34.3992C166.795 36.7992 166.928 43.7659 167.062 55.2992L167.362 78.8992H154.962L154.762 55.7992L154.662 32.6992L153.162 29.0992C150.962 23.7659 147.595 19.5992 143.062 16.5992C138.528 13.5326 133.595 11.9992 128.262 11.9992C124.195 11.9992 120.262 12.8992 116.462 14.6992C109.862 17.8992 105.228 23.2325 102.562 30.6992C101.962 32.4326 101.595 34.4659 101.462 36.7992C101.328 39.0659 101.262 45.6326 101.262 56.4992V78.8992H88.8617L89.0617 55.2992C89.1951 42.1659 89.3951 34.2992 89.6617 31.6992C89.9951 29.0992 91.1284 25.8325 93.0617 21.8992C94.5951 18.7659 96.3617 16.0992 98.3617 13.8992C100.428 11.6992 103.295 9.36588 106.962 6.89922C111.562 3.69921 116.362 1.73255 121.362 0.999215ZM125.762 15.7992C126.562 15.6659 127.195 15.5992 127.662 15.5992C129.662 15.5992 131.228 16.2326 132.362 17.4992L133.762 19.0992V47.4992L132.062 49.1992C130.595 50.6659 129.128 51.3992 127.662 51.3992C126.195 51.3992 124.762 50.6326 123.362 49.0992L122.162 47.7992V18.6992L123.362 17.2992C124.028 16.6325 124.828 16.1325 125.762 15.7992Z" fill="#7AE705"/>
</svg>
