<svg width="14591" height="3625" viewBox="0 0 14591 3625" fill="none" xmlns="http://www.w3.org/2000/svg">
<path d="M3995 2610C3995 2225 3870 2075 3170 2075H200C40 2075 5.00001 1985 5.00001 1805C5.00001 1625 40 1535 200 1535H3205C3805 1535 3990 1455 3990 1035C3990 685 3860 540 3230 540H2475C2315 540 2280 450 2280 270C2280 89.9999 2315 -0.000119209 2475 -0.000119209H3160C4030 -0.000119209 4630 205 4630 1040C4630 1390 4525 1650 4170 1825C4475 1940 4675 2145 4675 2590C4675 3445 3940 3625 3200 3625H195C35 3625 1.41561e-05 3535 1.41561e-05 3355C1.41561e-05 3175 35 3085 195 3085H3240C3900 3085 3995 2945 3995 2610ZM7965.12 3625H6390.12C5650.12 3625 4915.12 3445 4915.12 2590C4915.12 2145 5115.12 1940 5420.12 1825C5065.12 1650 4960.12 1390 4960.12 1040C4960.12 205 5560.12 -0.000119209 6430.12 -0.000119209H7925.12C8795.12 -0.000119209 9395.12 205 9395.12 1040C9395.12 1390 9290.12 1650 8935.12 1825C9240.12 1940 9440.12 2145 9440.12 2590C9440.12 3445 8705.12 3625 7965.12 3625ZM5595.12 2610C5595.12 2945 5690.12 3085 6350.12 3085H8005.12C8665.12 3085 8760.12 2945 8760.12 2610C8760.12 2225 8635.12 2075 7935.12 2075H6420.12C5720.12 2075 5595.12 2225 5595.12 2610ZM7995.12 540H6360.12C5730.12 540 5600.12 685 5600.12 1035C5600.12 1455 5785.12 1535 6385.12 1535H7970.12C8570.12 1535 8755.12 1455 8755.12 1035C8755.12 685 8625.12 540 7995.12 540ZM13110.7 3625H11230.7C10245.7 3625 9750.74 3315 9750.74 2695V930C9750.74 305 10245.7 -0.000119209 11230.7 -0.000119209H12130.7C12290.7 -0.000119209 12325.7 89.9999 12325.7 270C12325.7 450 12290.7 540 12130.7 540H11250.7C10665.7 540 10410.7 710 10410.7 930V1225H13110.7C14095.7 1225 14590.7 1530 14590.7 2155V2695C14590.7 3315 14095.7 3625 13110.7 3625ZM13090.7 3085C13675.7 3085 13930.7 2910 13930.7 2695V2155C13930.7 1935 13675.7 1765 13090.7 1765H10410.7V2695C10410.7 2910 10665.7 3085 11250.7 3085H13090.7Z" fill="#2766EC"/>
</svg>
